<?xml version="1.0" standalone="no"?>
<!DOCTYPE svg PUBLIC "-//W3C//DTD SVG 20010904//EN"
 "http://www.w3.org/TR/2001/REC-SVG-20010904/DTD/svg10.dtd">
<svg version="1.0" xmlns="http://www.w3.org/2000/svg"
 width="612.000000pt" height="612.000000pt" viewBox="0 0 612.000000 612.000000"
 preserveAspectRatio="xMidYMid meet">
<metadata>
Created by potrace 1.14, written by Peter Selinger 2001-2017
</metadata>
<g transform="translate(0.000000,612.000000) scale(0.100000,-0.100000)"
fill="#000000" stroke="none">
<path d="M2453 5807 c-3 -5 -13 -7 -23 -4 -11 3 -28 -5 -42 -20 -13 -14 -30
-22 -40 -20 -11 3 -18 0 -18 -9 0 -8 -10 -14 -24 -14 -19 0 -25 -7 -31 -36 -4
-24 -13 -38 -26 -41 -10 -3 -19 -9 -19 -14 0 -5 -6 -9 -13 -9 -7 0 -20 -9 -29
-20 -9 -10 -35 -31 -57 -46 -42 -27 -47 -35 -33 -48 4 -4 7 -21 7 -37 0 -21
-5 -29 -18 -29 -10 0 -20 -8 -23 -17 -3 -10 -12 -30 -20 -45 -8 -14 -11 -33
-8 -42 4 -12 0 -16 -15 -16 -26 0 -26 -8 -1 -35 11 -12 22 -36 25 -53 2 -17 6
-35 9 -40 3 -5 -2 -37 -10 -72 -8 -35 -12 -76 -9 -91 3 -15 0 -52 -8 -82 -9
-35 -13 -80 -9 -125 2 -38 -1 -114 -9 -168 -7 -55 -12 -126 -12 -159 1 -85 21
-253 33 -275 6 -10 10 -28 10 -39 0 -12 16 -59 35 -105 19 -47 35 -87 35 -90
0 -3 -12 -6 -27 -6 -42 0 -61 -15 -31 -25 21 -6 21 -7 -12 -16 -19 -5 -42 -11
-50 -13 -25 -5 -40 -48 -40 -116 0 -60 13 -99 40 -120 4 -3 25 -44 47 -91 22
-47 54 -101 72 -121 17 -20 31 -46 32 -59 0 -15 3 -18 6 -9 3 8 12 22 19 31
12 13 8 21 -26 58 -28 30 -45 61 -59 109 -18 60 -19 74 -8 139 9 50 16 70 24
65 15 -9 35 -117 37 -198 2 -62 28 -115 53 -107 21 7 57 -138 39 -158 -8 -9
-7 -11 6 -6 12 4 18 -2 23 -25 4 -18 2 -35 -4 -41 -15 -15 -88 -12 -109 4 -10
7 -7 3 4 -10 20 -22 61 -29 104 -19 9 2 16 -6 18 -21 3 -21 1 -23 -20 -17 -12
4 -89 11 -169 16 -80 5 -150 10 -155 11 -25 4 -35 -7 -68 -73 -70 -146 -86
-162 -268 -279 -161 -104 -255 -171 -383 -277 -44 -36 -79 -55 -130 -70 -39
-12 -98 -36 -130 -53 -82 -43 -227 -152 -274 -205 -56 -64 -165 -290 -197
-409 -15 -55 -44 -154 -65 -220 -43 -138 -99 -359 -134 -526 -13 -64 -33 -134
-44 -155 -22 -42 -29 -71 -96 -401 -43 -214 -85 -489 -85 -559 l0 -34 1410 0
1410 0 2 68 c3 142 -4 309 -28 642 -53 761 -68 875 -167 1258 -25 94 -42 172
-38 172 4 0 12 -5 19 -12 8 -8 10 -5 6 17 -3 15 -9 36 -14 46 -6 10 -10 26
-10 36 -1 10 -18 54 -40 98 -22 44 -35 82 -29 83 5 2 -2 15 -17 29 -14 13 -27
35 -28 48 0 13 -4 21 -8 18 -5 -2 -8 7 -8 22 0 17 -7 29 -22 35 -15 6 -17 9
-7 9 19 1 52 -33 42 -42 -3 -4 1 -7 10 -7 10 0 17 7 17 16 0 8 -4 13 -9 10
-11 -7 -54 39 -50 53 2 6 24 -9 48 -32 55 -52 101 -87 115 -87 6 1 0 10 -13
21 -13 11 -22 22 -19 24 2 3 15 -6 27 -19 13 -14 30 -22 37 -19 8 3 14 1 12
-4 -2 -5 12 -24 29 -42 24 -24 38 -31 53 -26 12 4 28 1 36 -5 9 -8 33 -11 64
-8 27 3 47 2 45 -2 -2 -4 12 -7 33 -8 20 -1 49 -4 64 -7 23 -6 26 -4 21 15 -5
19 -3 20 21 10 18 -6 34 -7 45 0 10 5 43 9 72 8 105 -2 244 29 312 69 15 9
-24 -71 -44 -90 -11 -10 -17 -22 -14 -27 3 -5 -9 -39 -28 -77 -39 -82 -72
-165 -69 -176 1 -4 -23 -39 -53 -77 -63 -80 -110 -107 -150 -88 -14 6 -25 15
-25 20 0 5 -5 6 -10 3 -19 -12 -124 -6 -175 9 -27 8 -51 13 -53 11 -2 -2 27
-18 64 -35 253 -115 386 -102 400 39 6 59 31 165 37 155 9 -15 9 -70 2 -192
-4 -70 -1 -135 10 -206 10 -69 15 -178 15 -327 0 -123 7 -288 15 -367 34 -339
75 -892 75 -1029 l0 -33 775 0 c504 0 775 3 775 10 0 21 -39 112 -70 162 -27
43 -35 69 -41 136 -5 46 -20 111 -33 145 -13 34 -32 89 -41 122 -16 55 -52
181 -78 265 -5 19 -16 44 -23 55 -13 21 -44 135 -44 163 0 10 -11 34 -25 54
-14 21 -25 51 -25 71 0 18 -7 58 -16 88 -65 216 -66 224 -74 469 -6 183 -12
250 -27 305 -45 160 -93 225 -208 281 -38 19 -76 34 -85 34 -8 0 -49 18 -91
39 -42 22 -117 52 -165 66 -101 31 -132 48 -232 135 l-72 62 -56 -54 c-30 -29
-66 -60 -80 -68 -13 -8 -24 -18 -24 -22 0 -5 -12 -8 -26 -8 -14 0 -34 -5 -44
-10 -11 -6 -21 -6 -24 -1 -4 5 -25 3 -52 -5 -44 -13 -45 -13 -38 8 6 20 6 20
-19 2 -14 -11 -22 -23 -19 -29 3 -5 -1 -5 -9 2 -8 6 -41 14 -74 19 -33 4 -54
9 -47 11 6 3 12 9 12 14 0 6 -4 7 -10 4 -5 -3 -10 0 -10 7 0 10 -2 10 -8 0 -6
-9 -12 -6 -22 12 -7 14 -18 22 -24 19 -6 -4 -5 1 2 10 8 9 11 25 7 36 -5 16
-3 20 9 15 11 -4 16 -1 16 10 0 9 4 16 8 16 12 0 13 42 1 56 -5 7 -19 9 -31 6
-13 -3 -24 1 -30 12 -5 9 -14 14 -19 10 -6 -3 -5 2 1 13 7 10 21 20 31 20 11
1 26 9 35 17 16 17 49 22 40 7 -3 -5 3 -11 14 -14 14 -4 18 -10 14 -24 -6 -16
-5 -16 10 2 13 16 15 17 10 3 -3 -10 -1 -18 5 -18 6 0 11 6 11 13 0 8 3 7 9
-2 8 -12 11 -10 16 10 4 16 18 30 38 38 l32 13 -25 8 c-14 4 -19 8 -12 9 7 1
10 6 7 11 -5 9 7 14 27 11 16 -2 134 58 149 77 10 11 23 24 30 28 17 11 89
104 89 115 0 14 79 126 92 132 19 7 22 67 4 67 -8 0 -17 -4 -21 -9 -3 -6 -13
-10 -23 -10 -160 -3 -209 -7 -205 -17 3 -8 -14 -10 -57 -8 -37 1 -58 -1 -54
-7 3 -6 -5 -7 -21 -3 -20 5 -30 2 -41 -15 -17 -24 -34 -28 -34 -7 0 15 -33 27
-90 32 -46 5 -63 8 -77 17 -6 4 -13 3 -15 -3 -5 -14 -26 2 -30 25 -2 13 3 21
17 23 16 3 18 1 8 -9 -7 -7 -13 -18 -13 -23 0 -6 6 -1 14 10 11 15 27 21 57
22 23 1 55 8 71 16 16 8 36 12 44 9 22 -8 125 7 118 18 -3 6 -11 8 -17 6 -7
-2 -18 2 -25 10 -7 7 -23 13 -35 13 -27 1 -50 17 -66 48 -6 12 -19 22 -28 22
-10 0 -14 6 -10 20 3 11 1 18 -4 14 -15 -9 -10 14 7 30 11 11 12 16 3 16 -7 0
-4 6 6 14 11 8 23 12 28 9 4 -2 7 -1 6 4 -1 4 -1 21 0 37 1 20 5 27 15 23 24
-9 14 65 -12 91 -12 12 -22 31 -22 41 0 11 -4 21 -10 23 -5 2 -10 30 -11 63
-2 33 -6 65 -10 70 -4 6 -10 29 -14 51 -5 34 -3 43 10 48 14 5 15 9 6 20 -9
11 -9 15 1 19 7 3 -1 6 -19 6 -24 1 -42 12 -75 46 -36 37 -49 45 -81 45 -23 0
-36 -4 -32 -10 4 -6 -5 -10 -19 -10 -24 0 -26 -3 -26 -45 0 -43 -1 -45 -29
-45 -27 0 -29 4 -37 48 -4 26 -9 39 -12 29 -3 -14 -7 -16 -18 -6 -21 17 -17
29 11 29 18 0 23 4 19 15 -5 11 1 15 22 16 25 0 26 2 9 8 -11 4 -39 6 -63 5
-24 -2 -41 0 -38 5 6 9 -29 7 -56 -4 -11 -4 -18 -3 -18 4 0 8 -6 9 -17 3 -10
-5 -31 -7 -47 -5 -15 2 -38 -3 -51 -11 -20 -13 -25 -13 -35 -1 -12 15 -5 55
10 55 5 0 7 7 3 16 -5 15 -3 15 20 -1 25 -16 27 -16 27 0 0 9 10 25 23 36 19
16 19 18 5 19 -20 0 -23 22 -8 51 9 15 7 19 -6 19 -11 0 -14 5 -10 16 3 9 6
21 7 27 0 7 4 3 9 -8 8 -18 9 -18 9 5 1 19 4 21 13 12 17 -17 28 -15 22 6 -4
9 4 2 15 -17 12 -18 24 -31 27 -28 3 3 -2 17 -12 31 -21 33 -28 86 -11 87 50
2 90 10 116 23 16 9 36 16 44 16 8 0 20 7 27 15 7 8 21 15 32 15 28 0 108 44
153 84 32 29 46 35 67 30 21 -4 30 0 44 21 9 14 19 23 22 20 3 -2 11 0 18 6 7
6 35 11 61 11 26 0 53 5 60 10 18 14 57 5 69 -16 10 -17 12 -17 18 9 5 18 12
25 21 21 10 -3 15 1 15 12 1 14 3 13 13 -4 7 -12 17 -19 24 -17 6 2 27 0 45
-5 21 -6 39 -5 49 1 9 5 28 7 43 3 22 -5 27 -11 23 -26 -3 -13 0 -20 10 -20 9
0 13 6 10 14 -4 10 0 12 16 8 28 -7 38 -22 31 -47 -4 -15 -3 -16 4 -6 6 8 15
10 22 6 8 -5 11 -4 6 3 -3 6 -2 13 4 17 5 3 14 -4 19 -17 5 -13 19 -35 31 -50
25 -29 65 -112 50 -103 -13 8 -10 -57 4 -74 9 -12 8 -13 -3 -6 -10 6 -12 4 -7
-4 5 -7 13 -10 20 -8 7 3 13 -4 13 -14 1 -10 -2 -19 -8 -19 -12 0 -12 -87 1
-95 6 -3 10 -16 10 -29 0 -12 9 -40 19 -62 11 -22 23 -53 27 -69 l7 -29 -30
22 c-40 28 -74 41 -119 44 -20 1 -38 7 -41 13 -3 8 -22 9 -64 3 -34 -4 -65 -5
-70 -2 -5 3 -28 7 -52 10 -49 4 -213 -37 -210 -54 2 -6 -7 -19 -20 -29 -12
-10 -28 -30 -34 -45 -10 -23 -19 -28 -49 -28 -50 0 -40 -6 19 -12 47 -6 48 -5
66 31 11 20 30 46 43 57 25 23 78 40 78 25 0 -6 15 -7 35 -4 l35 6 0 -57 0
-56 -35 0 c-32 0 -35 2 -29 24 5 20 1 24 -27 30 -32 6 -60 -7 -45 -21 4 -4 12
-1 17 7 8 11 9 9 4 -9 -4 -13 -8 -30 -9 -38 -1 -8 -7 -18 -13 -21 -18 -12 -34
-52 -28 -72 4 -12 19 -21 45 -25 45 -8 48 -12 23 -31 -16 -12 -15 -13 12 -14
17 0 41 -3 55 -6 21 -5 22 -4 8 6 -10 6 -18 16 -18 23 0 8 3 8 9 -1 6 -11 13
-8 29 12 11 15 22 22 24 16 2 -8 17 -8 51 0 39 8 52 7 72 -6 28 -19 27 -19 65
1 16 8 38 15 49 15 24 0 38 19 22 30 -7 4 -13 17 -14 28 -1 12 -9 25 -19 28
-10 3 -18 10 -18 16 0 7 4 7 13 1 18 -15 70 -26 62 -13 -3 5 -1 10 4 10 6 0
11 -5 11 -11 0 -27 25 1 26 30 1 20 -2 30 -10 28 -6 -2 -19 0 -30 5 -14 8 -16
12 -6 18 19 12 1 32 -22 24 -16 -5 -20 -3 -15 9 3 9 1 18 -6 21 -7 2 2 5 20 5
53 2 82 -17 88 -58 4 -20 12 -54 20 -76 7 -22 19 -62 25 -90 17 -65 22 -73 32
-49 5 11 5 1 2 -26 -6 -45 -48 -136 -81 -177 -10 -12 -43 -34 -73 -50 -49 -25
-66 -28 -150 -28 -87 0 -100 3 -149 30 -105 58 -184 182 -199 312 l-7 68 -45
1 c-25 1 -33 0 -17 -3 15 -2 27 -7 28 -11 1 -4 3 -26 4 -50 5 -55 38 -143 74
-196 101 -146 277 -211 426 -156 112 42 189 147 211 285 l7 50 11 -49 c6 -27
16 -51 22 -53 23 -8 32 84 13 134 -7 19 -7 29 0 31 6 2 11 11 11 19 0 10 -6
13 -16 9 -9 -3 -27 -6 -40 -6 -21 0 -24 -5 -25 -37 l-1 -38 -8 35 c-4 19 -10
49 -14 65 -7 30 -7 30 9 8 14 -18 21 -20 42 -12 13 5 30 6 36 2 8 -4 7 -1 -1
9 -20 25 -17 80 7 120 30 49 41 134 40 303 0 185 1 177 -18 199 -9 11 -10 16
-3 12 16 -10 15 4 -3 49 -9 20 -13 45 -10 56 4 10 -1 33 -9 51 -19 36 -20 41
-6 33 6 -3 10 3 10 14 0 11 -5 23 -10 26 -7 4 -8 11 -1 18 11 14 -7 95 -26
118 -16 19 -19 51 -8 69 16 25 34 83 29 92 -3 4 -16 5 -30 2 -17 -4 -31 -1
-44 11 -19 17 -19 19 -2 31 10 8 12 13 5 14 -19 0 -50 34 -45 48 2 7 -3 12
-11 12 -9 0 -23 18 -33 39 -11 26 -31 47 -58 62 -66 37 -98 73 -90 104 6 25 5
26 -14 14 -19 -12 -23 -11 -36 6 -9 11 -16 15 -16 7 0 -23 -40 10 -61 51 -11
21 -30 42 -42 48 -12 5 -40 21 -62 34 -22 14 -52 25 -66 25 -15 0 -51 19 -85
45 -58 44 -84 55 -84 35 0 -13 -77 -2 -105 15 -21 13 -93 30 -82 19 3 -4 0
-13 -8 -21 -12 -11 -26 -12 -72 -4 -102 18 -112 18 -110 7 3 -18 -101 -18
-168 0 -64 17 -263 25 -272 11z m727 -57 c0 -5 -4 -10 -10 -10 -5 0 -10 5 -10
10 0 6 5 10 10 10 6 0 10 -4 10 -10z m870 -1065 c11 -13 10 -14 -4 -9 -9 3
-16 10 -16 15 0 13 6 11 20 -6z m-1465 -385 c-3 -5 -13 -10 -21 -10 -8 0 -14
5 -14 10 0 6 9 10 21 10 11 0 17 -4 14 -10z m988 -147 c-13 -2 -33 -2 -45 0
-13 2 -3 4 22 4 25 0 35 -2 23 -4z m95 -32 c3 -8 -1 -12 -9 -9 -7 2 -15 10
-17 17 -3 8 1 12 9 9 7 -2 15 -10 17 -17z m101 -32 c1 -32 -2 -48 -9 -44 -5 3
-10 14 -10 24 0 26 -25 44 -50 36 -16 -5 -20 -2 -20 14 0 18 6 21 43 21 l44 0
2 -51z m-700 -24 c32 -37 35 -44 25 -69 -9 -25 -48 17 -41 44 4 16 -2 26 -26
41 -28 16 -29 19 -11 19 13 0 35 -15 53 -35z m591 -19 c0 -2 -7 -9 -15 -16
-12 -10 -15 -10 -15 4 0 9 7 16 15 16 8 0 15 -2 15 -4z m-1388 -71 c10 -18 57
-28 72 -16 7 6 26 7 48 2 21 -5 39 -6 42 -3 4 3 5 -8 5 -24 -1 -19 -3 -23 -6
-10 -4 16 -13 18 -66 14 -65 -5 -107 6 -107 28 0 7 -16 18 -35 25 -19 7 -35
16 -35 20 0 12 74 -21 82 -36z m1258 25 c0 -5 -9 -10 -20 -10 -18 0 -24 -12
-23 -47 1 -8 -11 -13 -28 -13 -34 0 -38 15 -9 30 11 6 20 17 20 25 0 7 12 16
28 18 15 2 28 5 30 6 1 0 2 -3 2 -9z m-1243 -22 c-3 -8 -6 -5 -6 6 -1 11 2 17
5 13 3 -3 4 -12 1 -19z m628 12 c4 -6 -5 -10 -19 -10 -14 0 -26 5 -26 10 0 6
9 10 19 10 11 0 23 -4 26 -10z m739 -6 c13 -5 14 -9 5 -20 -17 -21 -39 -17
-39 6 0 21 8 24 34 14z m-97 -26 c-3 -8 -6 -5 -6 6 -1 11 2 17 5 13 3 -3 4
-12 1 -19z m33 12 c0 -5 -4 -10 -10 -10 -5 0 -10 5 -10 10 0 6 5 10 10 10 6 0
10 -4 10 -10z m-654 -44 c23 -17 19 -21 -25 -30 -27 -5 -32 -3 -27 10 3 9 6
20 6 25 0 14 24 11 46 -5z m-381 -32 c-10 -8 -19 -27 -20 -44 -2 -30 -1 -31
39 -30 69 3 97 0 92 -8 -2 -4 4 -8 14 -8 10 0 16 4 13 9 -3 5 1 8 8 6 31 -4
60 2 54 10 -8 15 21 20 128 25 58 3 95 1 92 -5 -4 -5 -16 -9 -29 -9 -12 0 -30
-6 -40 -13 -16 -11 -15 -13 8 -15 14 -1 37 3 51 8 14 5 25 6 25 0 0 -15 -52
-50 -75 -50 -12 0 -32 -9 -44 -19 -13 -11 -29 -17 -38 -14 -11 4 -14 1 -11
-13 3 -20 48 -33 48 -15 0 6 7 11 16 11 8 0 12 -5 9 -10 -10 -16 14 -40 33
-33 9 3 14 3 10 -2 -4 -4 -3 -17 3 -27 10 -19 12 -19 43 8 17 16 13 10 -11
-14 -25 -25 -48 -40 -55 -36 -6 4 -8 3 -4 -4 4 -6 -17 -20 -51 -33 -73 -29
-229 -33 -279 -7 -43 23 -102 92 -126 146 -20 43 -39 184 -23 170 3 -3 7 -27
7 -52 0 -28 4 -46 11 -46 7 0 12 11 12 25 0 14 -3 25 -7 25 -5 0 -8 5 -8 11 0
5 5 7 10 4 6 -3 10 1 10 9 0 9 3 15 8 15 20 -3 31 2 26 15 -3 9 5 17 23 24 35
12 52 3 28 -14z m-205 -47 c0 -7 9 -23 20 -35 21 -22 27 -52 10 -52 -5 0 -9
-6 -7 -12 1 -7 -4 -12 -10 -10 -7 1 -13 -3 -13 -9 0 -12 42 -8 51 4 3 5 9 2
12 -7 4 -9 2 -16 -4 -16 -6 0 -3 -7 5 -16 9 -8 14 -20 11 -25 -4 -5 3 -9 13
-9 11 0 26 -8 33 -17 12 -15 12 -16 -3 -10 -30 11 -20 0 28 -30 30 -18 47 -37
51 -54 5 -26 16 -31 39 -17 5 4 30 2 55 -4 100 -23 234 9 326 79 36 28 93 39
93 19 0 -6 -12 -20 -26 -31 -48 -38 -204 -190 -204 -200 -1 -5 -16 -21 -34
-36 -19 -14 -51 -47 -72 -74 -29 -39 -37 -57 -36 -87 2 -39 47 -138 63 -138 5
0 9 -5 9 -12 0 -6 8 -20 17 -30 9 -10 17 -26 18 -36 1 -9 9 -34 18 -56 19 -42
22 -92 8 -101 -5 -3 -12 4 -16 15 -4 11 -10 18 -15 15 -5 -3 -11 -1 -15 5 -3
5 -1 10 6 10 8 0 8 4 -1 15 -7 9 -15 13 -18 10 -6 -6 -47 40 -60 69 -27 57
-42 95 -42 106 0 6 -4 9 -9 6 -16 -11 -52 79 -49 124 1 23 6 44 10 46 12 8 10
34 -4 48 -7 6 -30 20 -50 29 -27 13 -35 22 -31 34 4 11 3 14 -6 9 -6 -4 -18
-2 -26 4 -17 14 -20 47 -5 52 7 2 5 11 -5 23 -8 11 -15 16 -14 10 5 -38 -2
-55 -23 -54 -17 1 -19 2 -5 6 9 2 17 9 17 14 0 12 -26 11 -53 -2 -21 -9 -21
-9 -4 5 18 14 18 15 -5 18 -17 2 -23 9 -23 28 0 14 -6 31 -12 38 -7 7 -14 20
-14 28 -2 21 -8 72 -10 88 -2 11 -7 12 -20 5 -15 -8 -17 -6 -12 8 6 15 4 16
-9 5 -13 -11 -15 -8 -15 21 1 18 -2 40 -6 50 -4 11 -2 17 8 17 16 0 19 9 16
53 0 15 4 27 10 27 5 0 7 -6 3 -12 -4 -8 -3 -10 2 -5 9 9 11 14 13 47 1 22 21
28 21 7z m30 -7 c0 -5 -5 -10 -11 -10 -5 0 -7 5 -4 10 3 6 8 10 11 10 2 0 4
-4 4 -10z m-373 -32 c-3 -8 -6 -5 -6 6 -1 11 2 17 5 13 3 -3 4 -12 1 -19z m11
-79 l2 -34 -15 25 c-18 31 -19 53 -2 48 6 -3 13 -20 15 -39z m1032 1 c-6 -11
-13 -20 -16 -20 -2 0 0 9 6 20 6 11 13 20 16 20 2 0 0 -9 -6 -20z m31 -257 c1
-10 2 -30 3 -45 3 -34 -17 -37 -31 -6 -6 14 -6 29 1 45 13 27 26 30 27 6z
m-525 -173 c5 1 10 -4 12 -10 3 -9 -1 -9 -17 -1 -11 7 -21 17 -21 24 0 8 3 8
9 -1 4 -8 12 -13 17 -12z m1034 -111 c0 -25 -102 -128 -150 -151 -26 -12 -38
-14 -48 -5 -9 7 -16 7 -20 0 -11 -17 -52 -34 -75 -32 -12 1 -30 -1 -40 -6 -9
-4 -32 -4 -50 -1 -31 7 -72 13 -132 19 -23 2 -34 12 -47 38 -36 70 -8 113 29
45 10 -18 11 -18 23 3 6 12 9 29 6 37 -4 10 3 14 29 14 26 0 33 -4 29 -14 -3
-8 -1 -22 4 -32 8 -14 10 -13 15 8 5 18 16 27 38 32 17 3 35 3 40 0 12 -7 210
15 231 27 26 13 38 11 38 -7 0 -10 9 -5 26 15 30 36 54 40 54 10z m-797 -69
c10 -11 14 -26 11 -32 -5 -8 -1 -9 10 -5 13 5 16 2 14 -13 -2 -10 5 -25 14
-32 9 -7 18 -20 20 -27 2 -8 12 -24 24 -35 29 -29 37 -56 19 -62 -8 -4 -15
-14 -16 -23 0 -10 -2 -11 -6 -3 -2 6 -11 12 -19 12 -8 0 -14 9 -14 21 0 13 4
18 13 13 6 -4 3 2 -7 14 -11 12 -24 22 -31 22 -7 0 -20 19 -31 43 -10 23 -23
45 -29 49 -5 4 -11 20 -12 35 -1 15 -7 29 -12 31 -5 2 -7 10 -4 17 6 17 29 7
56 -25z m257 30 c0 -5 -2 -10 -4 -10 -3 0 -8 5 -11 10 -3 6 -1 10 4 10 6 0 11
-4 11 -10z m-140 -32 c0 -6 -7 -5 -15 2 -8 7 -15 17 -15 22 0 6 7 5 15 -2 8
-7 15 -17 15 -22z m40 -7 c13 -25 13 -34 0 -26 -16 10 -32 45 -21 45 6 0 15
-9 21 -19z m400 -186 c0 -22 -18 -35 -55 -41 -22 -3 -43 -11 -47 -18 -5 -6 -8
-7 -8 -1 0 6 -13 16 -30 22 -43 16 -37 29 18 40 60 12 122 11 122 -2z m-286
-180 c-10 -8 -23 -14 -29 -15 -5 0 -3 5 5 10 8 5 16 14 16 20 3 22 4 24 16 12
9 -9 8 -15 -8 -27z m-39 -25 c3 -5 1 -10 -4 -10 -6 0 -11 5 -11 10 0 6 2 10 4
10 3 0 8 -4 11 -10z"/>
<path d="M2460 3761 c0 -5 7 -12 16 -15 21 -8 24 -8 24 5 0 5 -4 7 -10 4 -5
-3 -10 -1 -10 4 0 6 -4 11 -10 11 -5 0 -10 -4 -10 -9z"/>
<path d="M2386 3507 c3 -10 9 -15 12 -12 3 3 0 11 -7 18 -10 9 -11 8 -5 -6z"/>
<path d="M2545 3410 c3 -5 8 -10 11 -10 2 0 4 5 4 10 0 6 -5 10 -11 10 -5 0
-7 -4 -4 -10z"/>
<path d="M1 4271 c-1 -433 -1 -444 18 -427 20 18 48 127 37 144 -3 6 -9 41
-12 78 -3 37 -9 75 -15 85 -15 29 -10 85 12 141 22 55 26 123 10 188 -5 19
-14 69 -21 110 -7 41 -16 86 -20 100 -5 14 -9 -175 -9 -419z"/>
<path d="M2780 4409 c0 -5 5 -7 10 -4 6 3 10 8 10 11 0 2 -4 4 -10 4 -5 0 -10
-5 -10 -11z"/>
<path d="M4836 4364 c-15 -14 -41 -28 -57 -31 -16 -3 -32 -10 -35 -14 -10 -16
-59 -9 -108 16 -27 14 -57 25 -67 25 -10 0 -21 5 -24 10 -7 11 -45 13 -70 4
-9 -4 -27 -30 -41 -58 -14 -28 -53 -79 -86 -112 -56 -58 -60 -64 -53 -95 9
-43 39 -93 72 -119 30 -24 96 -19 128 10 42 38 137 72 205 73 54 1 76 -4 130
-31 36 -17 75 -30 88 -29 12 1 41 18 64 39 40 36 42 39 42 100 0 107 -81 239
-146 238 -7 0 -26 -12 -42 -26z"/>
<path d="M2665 4330 c-3 -5 1 -10 10 -10 9 0 13 5 10 10 -3 6 -8 10 -10 10 -2
0 -7 -4 -10 -10z"/>
<path d="M5479 4183 c-1 -4 -1 -11 0 -15 0 -5 -5 -8 -12 -8 -22 0 -49 -37 -43
-58 18 -54 78 -79 108 -44 25 28 27 48 10 73 -9 13 -17 31 -17 39 0 15 -44 28
-46 13z"/>
<path d="M4061 4106 c-13 -7 -20 -16 -15 -19 5 -3 21 3 34 14 29 21 17 25 -19
5z"/>
<path d="M3197 4084 c-7 -7 2 -34 12 -34 4 0 7 9 7 20 0 20 -7 25 -19 14z"/>
<path d="M4165 4040 c3 -5 11 -10 16 -10 6 0 7 5 4 10 -3 6 -11 10 -16 10 -6
0 -7 -4 -4 -10z"/>
<path d="M3362 4000 c0 -14 2 -19 5 -12 2 6 2 18 0 25 -3 6 -5 1 -5 -13z"/>
<path d="M4185 3940 c0 -71 1 -76 11 -47 6 17 9 50 6 72 -8 70 -17 57 -17 -25z"/>
<path d="M3361 3871 c-10 -7 -11 -13 -2 -30 7 -11 16 -21 20 -21 11 0 24 31
16 38 -3 3 -5 0 -5 -7 0 -7 -5 -9 -11 -6 -6 4 -8 13 -5 21 6 16 6 17 -13 5z"/>
<path d="M4171 3834 c0 -11 3 -14 6 -6 3 7 2 16 -1 19 -3 4 -6 -2 -5 -13z"/>
<path d="M3583 3783 c-18 -2 -33 -9 -33 -14 0 -6 9 -7 20 -4 11 4 20 2 20 -4
0 -7 8 -7 25 1 26 12 34 29 13 26 -7 0 -28 -3 -45 -5z"/>
<path d="M4056 3694 c-10 -25 -7 -34 9 -34 8 0 15 9 15 19 0 26 -16 35 -24 15z"/>
<path d="M3365 3640 c-3 -5 4 -19 17 -32 12 -12 23 -29 23 -37 0 -8 14 -19 30
-24 17 -6 33 -15 37 -21 5 -8 11 -7 20 2 11 11 9 17 -11 33 -13 10 -28 19 -35
19 -16 0 -77 56 -69 64 3 3 4 6 0 6 -3 0 -8 -4 -12 -10z"/>
<path d="M3525 3483 c0 -59 -11 -73 -51 -65 -13 2 -35 -3 -49 -12 -14 -9 -29
-15 -34 -12 -4 3 -19 -6 -32 -21 l-24 -26 28 5 c21 4 27 2 23 -8 -5 -14 28
-29 44 -19 5 3 10 13 10 21 0 8 4 14 10 14 6 0 6 -9 0 -25 -5 -14 -6 -25 -1
-25 5 0 11 4 13 10 2 5 21 12 43 15 22 4 47 8 55 11 9 2 30 0 47 -5 21 -6 35
-5 42 2 8 8 11 6 12 -8 0 -11 3 -14 6 -7 8 20 27 14 58 -17 26 -28 28 -34 23
-100 -3 -39 -3 -71 -1 -71 2 0 14 21 25 47 24 54 25 116 3 149 -8 13 -15 33
-15 44 0 12 -4 19 -9 16 -5 -4 -33 14 -62 39 -29 25 -58 45 -65 45 -7 0 -17 6
-21 13 -4 6 -24 19 -43 28 l-35 16 0 -54z m59 -48 c-4 -11 -9 -11 -18 -2 -20
18 -16 38 5 26 10 -5 16 -16 13 -24z"/>
<path d="M3832 3391 c2 -7 7 -12 11 -12 12 1 9 15 -3 20 -7 2 -11 -2 -8 -8z"/>
<path d="M3363 3298 c4 -12 1 -18 -9 -18 -8 0 -13 4 -10 9 3 5 -15 5 -40 0
-26 -5 -49 -7 -53 -5 -12 8 -45 -24 -35 -33 8 -8 159 11 169 21 2 2 -4 12 -12
23 -13 16 -15 17 -10 3z"/>
<path d="M2 2935 l0 -140 14 75 c14 72 12 140 -6 184 -5 13 -9 -32 -8 -119z"/>
<path d="M3172 2723 c-15 -6 -6 -23 12 -23 7 0 13 7 13 15 0 16 -4 17 -25 8z"/>
<path d="M3486 2691 c-10 -11 -13 -21 -7 -25 10 -7 14 -3 24 27 8 22 4 22 -17
-2z"/>
<path d="M3520 2702 c0 -5 7 -9 15 -9 8 0 15 4 15 9 0 4 -7 8 -15 8 -8 0 -15
-4 -15 -8z"/>
<path d="M3285 2511 c-6 -11 9 -23 19 -14 9 9 7 23 -3 23 -6 0 -12 -4 -16 -9z"/>
<path d="M2566 2497 c3 -8 11 -14 19 -14 20 0 19 4 -5 17 -15 8 -18 8 -14 -3z"/>
<path d="M2660 2472 c0 -5 12 -15 28 -23 46 -23 48 -22 13 5 -38 29 -41 30
-41 18z"/>
<path d="M3090 2336 c-24 -14 -24 -14 20 -23 42 -9 91 -5 62 5 -7 2 -10 8 -6
13 3 5 -1 9 -10 9 -8 0 -20 2 -28 5 -7 2 -24 -2 -38 -9z"/>
</g>
</svg>
